<?xml version="1.0" encoding="iso-8859-1"?>
<!-- Generator: Adobe Illustrator 18.0.0, SVG Export Plug-In . SVG Version: 6.00 Build 0)  -->
<!DOCTYPE svg PUBLIC "-//W3C//DTD SVG 1.1//EN" "http://www.w3.org/Graphics/SVG/1.1/DTD/svg11.dtd">
<svg version="1.1" id="_x31_" xmlns="http://www.w3.org/2000/svg" xmlns:xlink="http://www.w3.org/1999/xlink" x="0px" y="0px"
	 viewBox="0 0 512 512" style="enable-background:new 0 0 512 512;" xml:space="preserve">
<g>
	<rect style="fill:#9AD4DA;" width="512" height="512"/>
	<polygon style="opacity:0.1;fill:#040000;" points="512,190.208 512,512 175.104,512 116.122,453.017 111.411,448.307 
		111.411,225.024 176.487,159.898 179.2,157.235 182.067,154.265 202.496,133.836 209.152,127.232 253.696,82.688 404.429,82.688 
		415.744,94.003 	"/>
	<g>
		<g>
			<polygon style="fill:#FFFFFF;" points="408.184,68.878 408.184,443.122 407.49,441.849 370.124,411.828 332.063,443.122 
				294.061,411.828 256,443.122 217.939,411.828 179.937,443.122 141.876,411.828 108.559,439.246 103.816,443.122 103.816,68.878 
							"/>
			<g>
				<path style="fill:#C45565;" d="M212.965,148.528c-0.405-0.405-0.81-0.578-1.33-0.578c-0.521,0-0.983,0.174-1.388,0.578
					c-0.347,0.29-0.636,1.041-0.984,2.198c-0.578,1.851-1.908,2.835-3.991,2.835c-2.024,0-3.875-0.984-5.611-2.95
					c-2.371-2.661-4.627-7.23-6.825-13.709c-0.926-2.776-1.62-4.743-2.025-5.9c-0.289-0.693-0.925-2.024-1.966-4.049
					c4.049-0.636,7.172-2.082,9.428-4.396c2.314-2.313,3.47-4.801,3.47-7.462c0-0.577-0.058-1.156-0.173-1.677
					c-0.405-2.024-1.62-3.586-3.586-4.743c-2.488-1.446-5.669-2.199-9.544-2.199c-4.107,0-8.04,0.984-11.8,2.834
					c-3.702,1.909-6.478,4.28-8.329,7.172c-1.851,2.892-2.777,5.958-2.777,9.313c0,2.603,0.579,4.801,1.736,6.536
					c0.925,1.389,1.966,2.083,3.181,2.083c0.463,0,0.867-0.174,1.215-0.521c0.347-0.347,0.521-0.751,0.521-1.157
					s-0.116-0.752-0.289-1.041c-0.232-0.347-0.752-0.868-1.562-1.562c-1.677-1.446-2.545-3.182-2.545-5.206
					c0-2.661,0.81-5.206,2.429-7.635c1.62-2.488,4.049-4.512,7.346-6.132c3.239-1.678,6.536-2.487,9.949-2.487
					c2.661,0,4.743,0.636,6.305,1.966c1.562,1.273,2.314,2.95,2.314,4.975c0,1.62-0.405,3.124-1.215,4.454
					c-0.405,0.809-0.983,1.562-1.677,2.255c-0.694,0.695-1.388,1.215-2.198,1.62c-1.388,0.81-3.008,1.214-4.743,1.214
					c-0.752,0-1.62-0.115-2.661-0.289l2.43-9.602c0.405-1.62,0.752-2.834,1.041-3.643c-3.066,0.809-5.669,1.215-7.867,1.215
					l-0.405,1.562c0.81,0,1.33,0.058,1.619,0.231c0.289,0.232,0.405,0.52,0.405,0.926c0,0.405-0.289,1.736-0.868,4.049
					l-4.512,18.163c-0.232,1.042-0.579,1.966-0.983,2.719c-0.405,0.983-0.926,1.677-1.504,2.197
					c-0.289,0.232-0.752,0.463-1.388,0.753c-0.81,0.347-1.909,0.693-3.297,1.041l-0.463,1.794l1.041-0.174
					c1.851-0.347,3.528-0.579,4.974-0.579c0.926,0,2.14,0.116,3.586,0.232c1.62,0.174,2.892,0.232,3.702,0.232
					c0.81,0,1.967-0.116,3.413-0.463l0.289-1.562c-1.388,0.347-2.545,0.463-3.528,0.463c-0.579,0-1.446-0.058-2.487-0.232
					l2.718-10.759l1.677-6.478c0.347-0.058,0.637-0.058,0.81-0.058l0.81,0.058c0.116,0.347,0.405,1.157,0.752,2.43
					c0.231,0.636,0.463,1.446,0.694,2.314c1.33,4.338,2.314,7.346,2.95,8.965c1.33,3.239,2.95,6.016,4.743,8.33
					c1.793,2.313,3.644,3.933,5.553,4.974c1.909,0.983,3.933,1.503,6.016,1.503c2.314,0,4.223-0.578,5.726-1.793
					c1.446-1.215,2.198-2.488,2.198-3.818C213.486,149.338,213.312,148.875,212.965,148.528z"/>
				<path style="fill:#C45565;" d="M219.79,130.886c2.487-1.446,4.223-2.892,5.206-4.222c0.983-1.388,1.504-2.776,1.504-4.164
					c0-1.388-0.405-2.429-1.215-3.182c-0.868-0.751-2.024-1.157-3.528-1.157c-4.396,0-8.214,2.603-11.337,7.809
					c-2.834,4.627-4.222,9.197-4.222,13.882c0,2.256,0.405,3.934,1.215,4.975c0.81,1.041,1.966,1.561,3.528,1.561
					c3.759,0,8.329-2.545,13.593-7.577l-1.041-1.446c-2.776,2.082-4.859,3.47-6.247,4.107c-1.099,0.521-2.082,0.752-2.95,0.752
					c-0.925,0-1.619-0.289-2.14-0.926c-0.462-0.578-0.694-1.678-0.694-3.182c0-1.099,0.058-2.197,0.289-3.354
					C215.857,132.911,218.518,131.638,219.79,130.886z M214.238,125.391c0.694-1.62,1.561-2.834,2.545-3.643
					c0.752-0.579,1.562-0.868,2.371-0.868c0.752,0,1.388,0.232,1.909,0.811c0.462,0.52,0.694,1.272,0.694,2.197
					c0,1.272-0.579,2.487-1.793,3.76c-1.735,1.793-4.338,3.47-7.867,5.032C212.502,130.192,213.254,127.763,214.238,125.391z"/>
				<path style="fill:#C45565;" d="M250.679,119.144c-0.81-0.636-2.025-0.926-3.644-0.926c-2.545,0-4.859,0.752-6.883,2.256
					c-2.603,1.909-4.801,4.685-6.594,8.33c-1.851,3.586-2.776,7.115-2.776,10.527c0,2.082,0.463,3.76,1.33,5.09
					c0.81,1.388,2.198,2.024,4.107,2.024c3.528,0,7.867-2.024,13.015-6.073l-0.636-1.851c-3.529,2.892-6.536,4.396-9.081,4.396
					c-1.041,0-1.909-0.463-2.487-1.33c-0.81-1.099-1.215-2.66-1.215-4.743c0-2.776,0.521-5.553,1.446-8.329
					c0.983-2.776,1.967-4.628,3.008-5.611c1.041-0.926,2.082-1.446,3.181-1.446c0.81,0,1.851,0.405,3.065,1.099
					c1.215,0.694,2.198,1.041,2.95,1.041s1.388-0.174,1.793-0.636c0.463-0.405,0.636-0.926,0.636-1.62
					C251.893,120.474,251.488,119.722,250.679,119.144z"/>
				<path style="fill:#C45565;" d="M268.32,130.886c2.545-1.446,4.28-2.892,5.264-4.222c0.926-1.388,1.446-2.776,1.446-4.164
					c0-1.388-0.405-2.429-1.214-3.182c-0.81-0.751-2.025-1.157-3.528-1.157c-4.396,0-8.214,2.603-11.337,7.809
					c-1.273,2.082-2.256,4.164-2.95,6.247c-0.867,2.545-1.272,5.032-1.272,7.635c0,2.256,0.405,3.934,1.214,4.975l0.058,0.058
					c0.81,0.983,1.967,1.503,3.471,1.503c3.76,0,8.329-2.545,13.651-7.577l-1.099-1.446c-2.719,2.082-4.859,3.47-6.247,4.107
					c-1.099,0.521-2.024,0.752-2.95,0.752c-0.925,0-1.619-0.289-2.14-0.926c-0.463-0.578-0.694-1.678-0.694-3.182
					c0-1.099,0.058-2.197,0.289-3.354C264.387,132.911,267.048,131.638,268.32,130.886z M262.767,125.391
					c0.694-1.62,1.562-2.834,2.545-3.643c0.81-0.579,1.562-0.868,2.372-0.868c0.752,0,1.388,0.232,1.909,0.811
					c0.462,0.52,0.694,1.272,0.694,2.197c0,1.272-0.579,2.487-1.793,3.76c-1.736,1.793-4.338,3.47-7.809,5.032
					C261.09,130.192,261.784,127.763,262.767,125.391z"/>
				<path style="fill:#C45565;" d="M292.036,138.695c-2.892,2.66-4.685,4.049-5.322,4.049c-0.173,0-0.347-0.116-0.52-0.347
					c-0.174-0.174-0.232-0.463-0.232-0.752c0-1.562,1.157-6.19,3.471-13.882c1.388-4.743,2.082-7.404,2.082-7.982
					c0-0.52-0.174-0.983-0.579-1.272c-0.347-0.289-0.867-0.463-1.561-0.463c-1.273,0-2.777,0.521-4.57,1.504
					c-1.793,1.041-3.76,2.718-5.9,5.091l1.388,1.099c1.909-1.851,3.181-2.95,3.702-3.297c0.578-0.347,1.041-0.52,1.504-0.52
					c0.347,0,0.578,0.232,0.578,0.636c0,0.405-0.058,0.868-0.231,1.33c-3.239,10.528-4.859,17.179-4.859,19.898
					c0,0.81,0.231,1.504,0.636,1.966c0.463,0.463,1.041,0.694,1.793,0.694c0.868,0,2.025-0.405,3.355-1.157
					c1.388-0.81,3.528-2.545,6.536-5.38L292.036,138.695z M294.755,104.914c-0.463-0.405-0.983-0.635-1.677-0.635
					c-0.868,0-1.62,0.347-2.256,0.983c-0.579,0.694-0.926,1.504-0.926,2.487c0,0.753,0.232,1.331,0.637,1.794
					c0.462,0.463,0.983,0.694,1.62,0.694c0.868,0,1.562-0.347,2.256-1.099c0.636-0.694,0.983-1.562,0.983-2.488
					C295.391,105.956,295.16,105.378,294.755,104.914z"/>
				<path style="fill:#C45565;" d="M322.461,119.722c-0.752-1.041-1.677-1.562-2.776-1.562c-1.735,0-3.586,0.637-5.611,1.967
					c-1.215,0.809-3.47,2.834-6.768,6.131c0.694-2.43,1.157-3.992,1.273-4.685c0.173-0.637,0.231-1.272,0.231-1.909
					c0-0.52-0.173-0.925-0.463-1.215c-0.347-0.232-0.752-0.405-1.272-0.405c-1.446,0-3.124,0.579-5.09,1.736
					c-1.967,1.099-3.875,2.834-5.9,5.206l1.273,1.272c2.718-2.776,4.512-4.164,5.495-4.164c0.52,0,0.809,0.289,0.809,0.868
					c0,0.52-0.578,3.066-1.677,7.635l-5.9,24.641c-0.405,1.909-1.041,3.239-1.793,3.934c-0.752,0.751-1.909,1.215-3.586,1.388
					l-0.405,1.62c3.239-0.29,5.958-0.405,7.982-0.405c2.025,0,4.743,0.116,8.214,0.405l0.405-1.62
					c-2.95-0.347-4.916-0.81-5.842-1.33c-0.636-0.347-0.925-0.926-0.925-1.736c0-0.405,0.116-0.926,0.289-1.562l2.777-10.759
					c1.561,0.868,3.065,1.272,4.627,1.272c3.991,0,7.577-2.372,10.874-7.057c3.239-4.743,4.917-9.718,4.917-14.981
					C323.618,122.325,323.213,120.763,322.461,119.722z M316.041,138.116c-1.967,4.049-4.222,6.074-6.825,6.074
					c-1.793,0-3.528-0.867-5.264-2.603l1.736-6.999c0.694-2.776,1.388-4.744,2.14-5.842c1.041-1.562,2.603-3.182,4.627-4.743
					c1.272-0.983,2.429-1.504,3.47-1.504c0.926,0,1.678,0.289,2.256,0.926c0.521,0.636,0.81,1.62,0.81,2.834
					C318.991,130.076,318.008,134.067,316.041,138.116z"/>
				<path style="fill:#C45565;" d="M339.236,122.672h6.71l0.521-2.314h-6.71l2.314-9.139l-5.148,2.024l-1.851,7.114h-5.264
					l-0.578,2.314h5.264l-3.297,12.899c-0.81,3.182-1.215,5.611-1.215,7.173c0,1.272,0.232,2.256,0.694,2.834
					c0.462,0.579,1.099,0.868,1.909,0.868c0.926,0,2.256-0.405,3.818-1.214c1.62-0.752,4.801-2.95,9.544-6.536l-1.215-1.504
					c-1.678,1.33-3.413,2.545-5.206,3.586c-1.388,0.81-2.429,1.215-3.123,1.215c-0.405,0-0.752-0.116-0.983-0.405
					c-0.289-0.232-0.405-0.636-0.405-1.214c0-1.33,0.463-3.587,1.388-6.826L339.236,122.672z"/>
			</g>
			<path style="opacity:0.16;fill:#050101;" d="M404.887,76.919l-20.881,4.28c-0.405-0.579-0.636-1.042-0.81-1.331l-0.52-1.388
				c0.694-0.752,2.95-2.834,6.71-6.247c1.33-1.214,2.545-2.314,3.644-3.355H381.75c-0.694,0.811-1.446,1.793-2.314,2.892
				c-0.694-1.041-1.446-1.966-2.256-2.892h-7.404c3.934,1.736,6.826,4.628,8.792,8.618c0.578,1.215,1.099,2.776,1.562,4.686
				l-17.874,3.644c-3.008,0.578-5.264,0.983-6.883,1.215c3.76,4.453,6.536,8.445,8.329,12.03l2.892-0.52
				c-0.636-1.331-0.925-2.257-0.867-2.892c0.115-0.579,0.52-1.042,1.157-1.388c0.694-0.29,3.182-0.926,7.462-1.851l33.838-7.057
				v-9.14L404.887,76.919z M406.622,96.469c-0.405-0.809-0.983-1.33-1.851-1.62c-0.81-0.289-1.62-0.289-2.372,0.058
				c-0.578,0.347-1.099,0.753-1.446,1.33c-0.405,0.579-0.868,1.851-1.388,3.876c-1.041,3.934-3.239,6.71-6.594,8.33
				c-4.454,2.14-9.313,2.834-14.692,2.082c-5.322-0.752-10.701-3.124-16.023-7.23c-5.321-4.049-9.371-8.908-12.089-14.519
				c-2.14-4.454-2.777-8.446-1.851-12.089c0.925-3.587,3.065-6.189,6.42-7.809h-12.61c-0.174,0.753-0.347,1.562-0.405,2.43
				c-0.405,5.322,0.925,11.164,4.049,17.584c3.297,6.883,8.04,12.667,14.172,17.353c6.131,4.685,12.321,7.403,18.567,8.156
				c6.305,0.751,12.205-0.232,17.758-2.892c4.28-2.083,7.462-4.801,9.486-8.214C407.259,100.692,407.548,98.379,406.622,96.469z"/>
			<g>
				<rect x="143.775" y="185.321" style="fill:#C45565;" width="224.449" height="17.344"/>
				<rect x="143.775" y="226.129" style="fill:#908689;" width="155.057" height="12.243"/>
				<rect x="143.775" y="256.421" style="fill:#908689;" width="116.171" height="12.243"/>
				<rect x="143.775" y="286.713" style="fill:#908689;" width="116.171" height="12.243"/>
				<rect x="143.775" y="317.005" style="fill:#908689;" width="135.256" height="12.243"/>
				<rect x="308.948" y="256.421" style="fill:#908689;" width="55.844" height="12.243"/>
				<rect x="322.953" y="226.129" style="fill:#908689;" width="41.839" height="12.243"/>
				<rect x="322.953" y="286.713" style="fill:#908689;" width="41.839" height="12.243"/>
				<rect x="316.08" y="317.005" style="fill:#908689;" width="48.712" height="12.243"/>
			</g>
			<rect x="319.516" y="376.535" style="fill:#908689;" width="48.712" height="18.364"/>
			<rect x="126.942" y="363.196" style="fill:#908689;" width="258.116" height="3.061"/>
		</g>
		<polygon style="opacity:0.1;fill:#040000;" points="408.184,68.878 408.184,443.122 407.49,441.849 370.124,411.828 
			332.063,443.122 294.061,411.828 256,443.122 256,68.878 		"/>
	</g>
</g>
</svg>
