<?xml version="1.0" encoding="iso-8859-1"?>
<!-- Generator: Adobe Illustrator 18.0.0, SVG Export Plug-In . SVG Version: 6.00 Build 0)  -->
<!DOCTYPE svg PUBLIC "-//W3C//DTD SVG 1.1//EN" "http://www.w3.org/Graphics/SVG/1.1/DTD/svg11.dtd">
<svg version="1.1" id="_x32_" xmlns="http://www.w3.org/2000/svg" xmlns:xlink="http://www.w3.org/1999/xlink" x="0px" y="0px"
	 viewBox="0 0 512 512" style="enable-background:new 0 0 512 512;" xml:space="preserve">
<g>
	<rect style="fill:#E17A80;" width="512" height="512"/>
	<path style="opacity:0.1;fill:#040000;" d="M512,254.72V512H242.534l-98.355-98.355l-0.051-0.051l-21.402-21.402
		c-0.051-0.358-0.051-0.768-0.051-1.127V357.53l8.499-8.499l3.943-3.942l50.534-50.534l8.499-8.499l43.93-43.93l0.973-0.972
		l74.496-74.496l29.594-29.593l11.264-11.264l13.773-13.773l0.563-0.563L512,254.72z"/>
	<g>
		<path style="fill:#69B6A9;" d="M389.325,148.429v242.637c0,12.493-10.547,22.63-23.603,22.63H146.278
			c-0.717,0-1.434-0.051-2.151-0.102c-10.445-0.922-18.892-8.294-20.992-17.971c-0.205-1.127-0.358-2.253-0.41-3.43
			c-0.051-0.358-0.051-0.768-0.051-1.127V148.429c0-1.587,0.153-3.072,0.461-4.557c1.127-5.12,3.994-9.575,8.038-12.851
			c1.433-1.127,2.97-2.151,4.71-2.918c3.123-1.485,6.656-2.304,10.394-2.304h219.443c5.018,0,9.728,1.485,13.568,4.096
			c1.946,1.331,3.686,2.918,5.12,4.71c0.256,0.307,0.512,0.666,0.768,1.024c0.717,1.024,1.331,2.048,1.894,3.174
			c0.205,0.41,0.41,0.819,0.563,1.229c0.563,1.382,1.024,2.816,1.28,4.301c0.102,0.461,0.205,0.922,0.256,1.434
			C389.273,146.637,389.325,147.507,389.325,148.429z"/>
		<path style="fill:#313333;" d="M185.651,125.798v287.897h-40.346c-0.358,0-0.768,0-1.127-0.051
			c-10.445-0.512-18.995-8.089-21.043-18.022c-0.205-1.127-0.358-2.253-0.41-3.43c-0.051-0.358-0.051-0.768-0.051-1.127V148.429
			c0-1.587,0.153-3.072,0.461-4.557c1.075-5.274,3.994-9.882,8.038-13.158c1.485-1.127,3.072-2.151,4.813-2.867
			c2.087-0.986,4.408-1.506,6.805-1.776c0.501-0.071,1.005-0.124,1.516-0.164c0.339-0.015,0.656-0.108,0.998-0.108H185.651z"/>
		<polygon style="fill:#B2536C;" points="239.03,242.599 216.379,231.362 193.727,242.599 193.727,125.803 239.03,125.803 		"/>
		<path style="fill:#F5E529;" d="M363.148,111.414h-166.76h-39.245c-12.171,0-22.043,10.144-22.043,22.652v9.947
			c0,12.507,9.872,22.651,22.043,22.651h39.245h166.76c12.171,0,22.043-10.144,22.043-22.651v-9.947
			C385.191,121.558,375.319,111.414,363.148,111.414z"/>
		<polygon style="fill:#F2F2F2;" points="385.191,137.054 196.388,137.054 135.1,137.054 135.1,392.402 196.388,392.402 
			385.191,392.402 		"/>
		<linearGradient id="SVGID_1_" gradientUnits="userSpaceOnUse" x1="135.1" y1="391.0695" x2="385.1908" y2="391.0695">
			<stop  offset="0" style="stop-color:#FFFFFF"/>
			<stop  offset="0.9952" style="stop-color:#F6F5F5"/>
		</linearGradient>
		<path style="fill:url(#SVGID_1_);" d="M372.808,401.877H143.739c-4.752,0-8.639-3.888-8.639-8.639v-4.336
			c0-4.752,3.888-8.639,8.639-8.639h232.812c4.752,0,8.639,3.888,8.639,8.639v0.593
			C385.191,396.305,379.618,401.877,372.808,401.877z"/>
		<path style="fill:#69B6A9;" d="M379.29,120.934V363.52c0,6.656-2.867,12.647-7.424,16.743c-3.994,3.737-9.37,5.939-15.258,5.939
			H145.306c-3.174,0-6.144-0.666-8.858-1.843c-0.461-0.154-0.922-0.358-1.331-0.614c-1.383-0.717-2.714-1.536-3.943-2.509
			c-0.154-0.154-0.358-0.256-0.512-0.41c-1.127-0.973-2.151-2.048-3.072-3.226c-3.072-3.84-4.915-8.755-4.915-14.08V120.934
			c0-12.544,10.137-22.682,22.63-22.682h211.302c11.674,0,21.351,8.857,22.579,20.327c0,0,0,0,0,0.051
			C379.238,119.398,379.29,120.167,379.29,120.934z"/>
		<path style="fill:#D6D7D7;" d="M194.171,98.266v287.918h-62.98V120.917c0-12.507,10.144-22.651,22.651-22.651H194.171z"/>
		<path style="fill:#505354;" d="M185.651,98.253v287.949h-62.976V120.934c0-12.544,10.137-22.682,22.63-22.682H185.651z"/>
		<polygon style="fill:#EBE0AC;" points="301.599,175.089 276.283,161.378 250.966,175.089 250.966,98.266 301.599,98.266 		"/>
		<path style="fill:#BDB595;" d="M287.744,128.358h-8.653l-0.819-2.56l-1.946-5.939h-0.102l-1.894,5.939l-0.819,2.56h-8.704v0.103
			l7.014,5.171l-1.126,3.43l-1.638,5.171h0.102l6.963-5.171l0.154-0.102l0.153,0.102l6.963,5.171h0.102l-1.638-5.171l-1.126-3.43
			l7.014-5.171V128.358z"/>
		<path style="opacity:0.04;fill:#040000;" d="M389.325,148.429v242.637c0,12.493-10.547,22.63-23.603,22.63H145.306
			c-0.358,0-0.768,0-1.127-0.051c-10.445-0.512-18.995-8.089-21.043-18.022c-0.205-1.127-0.358-2.253-0.41-3.43
			c-0.051-0.358-0.051-0.768-0.051-1.127v-8.806l4.915-4.659l3.584-3.379l3.943-3.738l50.534-47.821l8.499-8.038l156.416-147.968
			l28.724-27.187l2.509-2.406l2.611-2.458l0.768-0.717v1.741c0.717,1.024,1.331,2.048,1.894,3.174
			c0.205,0.41,0.41,0.819,0.563,1.229c0.563,1.382,1.024,2.816,1.28,4.301c0.102,0.461,0.205,0.922,0.256,1.434
			C389.273,146.637,389.325,147.507,389.325,148.429z"/>
	</g>
</g>
</svg>
